<svg xmlns="http://www.w3.org/2000/svg" width="42.908" height="41.792" viewBox="0 0 42.908 41.792"><g transform="translate(-55.531 -98.008)"><g transform="translate(85.85 101.346)"><path d="M135.135,108.822l-3.863-4.26-5.83,9.127Z" transform="translate(-125.441 -104.562)" fill="#fff"/><path d="M140.75,140.3l-.115-5.75L130.244,137.6Z" transform="translate(-128.161 -121.542)" fill="#fff"/><path d="M134.536,165.975l3.343-4.679-10.157-3.76Z" transform="translate(-126.733 -134.562)" fill="#fff"/></g><g transform="translate(55.531 101.346)"><path d="M62.207,108.822l3.863-4.26,5.83,9.127Z" transform="translate(-59.312 -104.562)" fill="#fff"/><path d="M55.531,140.3l.115-5.75L66.037,137.6Z" transform="translate(-55.531 -121.542)" fill="#fff"/><path d="M62.2,165.975,58.859,161.3l10.157-3.76Z" transform="translate(-57.416 -134.562)" fill="#fff"/></g><g transform="translate(65.637 98.883)"><path d="M98.152,115.424c-.651-1.781-1.606-3.483-3.667-4.066-1.359-.385-2.719-.791-4.1-1.052a2.294,2.294,0,0,1-1.989-1.952c-.122-.544-.258-1.085-.4-1.625a3.041,3.041,0,0,1,.931-3.15,14.977,14.977,0,0,1,2.048-1.883,1.61,1.61,0,0,0,.668-.786c.014-.031.025-.063.036-.1,0-.01.007-.021.01-.031a1.422,1.422,0,0,0-1.356-1.9,4.212,4.212,0,0,0-.866.219,7.664,7.664,0,0,0-2.221,1.474c-1.465,1.28-2.752,2.7-2.881,4.832a13.747,13.747,0,0,0,.92,5.789,4.026,4.026,0,0,1,.062,3.018c-.9,2.368-1.377,4.86-2.3,7.247-.639,1.656-.917,3.606-1.421,5.4-.834,2.973-1.763,5.919-2.621,8.885-.452,1.564.015,2.641,1.232,3.024a2.063,2.063,0,0,0,2.647-1.569c1.379-3.933,2.728-7.876,4.094-11.813.178-.512.388-1.013.6-1.569a.749.749,0,0,1,.445.713q1.115,6.091,2.227,12.183c.278,1.512,1.167,2.3,2.36,2.126,1.239-.184,1.876-1.141,1.759-2.654-.02-.259-.075-.515-.108-.773q-.632-4.979-1.26-9.959c-.039-.307-.243-.711.263-.825,1.481-.332,2.379-1.458,3.368-2.452A6.079,6.079,0,0,0,98.152,115.424Z" transform="translate(-78.835 -98.883)" fill="#fff" stroke="#21b209" stroke-miterlimit="10" stroke-width="1.75"/><rect width="6.932" height="6.932" rx="0.775" transform="translate(12.178 2.848) rotate(17.624)" fill="#ffd800" stroke="#21b209" stroke-linecap="round" stroke-linejoin="round" stroke-width="1.75"/><path d="M111.251,135.795,109.5,142.16S115.282,137.864,111.251,135.795Z" transform="translate(-96.202 -119.787)" fill="none" stroke="#21b209" stroke-linecap="round" stroke-linejoin="round" stroke-width="1.75"/></g></g></svg>