<svg xmlns="http://www.w3.org/2000/svg" width="32.191" height="41.725" viewBox="0 0 32.191 41.725"><g transform="translate(-342.341 -49.15)"><path d="M350.122,100.825V77.692a.792.792,0,0,1,.792-.792h26.035a.792.792,0,0,1,.792.792v24.473c0,.022,0,.04,0,.061-.028.343-.355,3.361-3.181,3.513" transform="translate(-4.059 -15.759)" fill="#fff" stroke="#21b209" stroke-linecap="round" stroke-linejoin="round" stroke-width="1.7"/><path d="M369.869,140l-24.678-.013c-1.36.058-2.082-1.3-1.989-2.6a2.232,2.232,0,0,1,.876-1.706,1.688,1.688,0,0,1,1.039-.277l25.2-.014" transform="translate(0 -50.026)" fill="#fff" stroke="#21b209" stroke-linecap="round" stroke-linejoin="round" stroke-width="1.7"/><line x2="1.683" transform="translate(350.089 72.376)" fill="none" stroke="#21b209" stroke-linecap="round" stroke-linejoin="round" stroke-width="1.7"/><line x2="3.912" transform="translate(350.089 76.91)" fill="none" stroke="#21b209" stroke-linecap="round" stroke-linejoin="round" stroke-width="1.7"/><line x2="3.912" transform="translate(350.089 81.158)" fill="none" stroke="#21b209" stroke-linecap="round" stroke-linejoin="round" stroke-width="1.7"/><line x1="4.688" transform="translate(364.687 72.376)" fill="none" stroke="#21b209" stroke-linecap="round" stroke-linejoin="round" stroke-width="1.7"/><line x1="6.801" transform="translate(362.575 76.91)" fill="none" stroke="#21b209" stroke-linecap="round" stroke-linejoin="round" stroke-width="1.7"/><line x1="6.801" transform="translate(362.575 81.158)" fill="none" stroke="#21b209" stroke-linecap="round" stroke-linejoin="round" stroke-width="1.7"/><path d="M406,140.007c-1.781.315-2.143-1.539-2.015-2.6a2.325,2.325,0,0,1,.887-1.706,1.521,1.521,0,0,1,1.961.158,1.283,1.283,0,0,1,.2.622,1.919,1.919,0,0,1-.224.924.668.668,0,0,1-.544.413l-2.233-.146" transform="translate(-35.601 -50.042)" fill="none" stroke="#21b209" stroke-linecap="round" stroke-linejoin="round" stroke-width="1.7"/><g transform="translate(346.761 50)"><line x1="3.698" y1="3.208" transform="translate(0 3.252)" fill="#fff" stroke="#21b209" stroke-linecap="round" stroke-linejoin="round" stroke-width="1.7"/><line y1="3.208" x2="3.698" transform="translate(18.678 3.252)" fill="#fff" stroke="#21b209" stroke-linecap="round" stroke-linejoin="round" stroke-width="1.7"/><line y1="4.536" transform="translate(11.234)" fill="#fff" stroke="#21b209" stroke-linecap="round" stroke-linejoin="round" stroke-width="1.7"/><g transform="translate(2.813 8.31)"><path d="M378.788,121.156a.55.55,0,0,1-.074.146c-.21.284-.659.08-.894.354s-.225,1.113-.293,1.484a.494.494,0,0,1-.114.28.364.364,0,0,1-.236.071c-.612.034-2.751.172-3.214-.386-.323-.389-.01-1.149-.366-1.5a1.968,1.968,0,0,0-1.256-.447c.01-.519,0-5.5.01-5.5,2.282,0,4.733-.423,6.969-.188-.1,1.1-.334,2.166-.467,3.238A12.18,12.18,0,0,1,378.788,121.156Z" transform="translate(-366.649 -96.621)" fill="#f6edd9"/><path d="M361.1,84.662a8.552,8.552,0,1,1,11.828.255" transform="translate(-358.599 -70.063)" fill="#fff" stroke="#0d3d6b" stroke-linecap="round" stroke-linejoin="round" stroke-width="1.7"/><path d="M378.3,81.093a7.295,7.295,0,1,0-12.852,4.719,21.649,21.649,0,0,1,1.438,2.808,7.975,7.975,0,0,1,.252,1.931.439.439,0,0,0,.44.528,11.112,11.112,0,0,0,4.334.186,7.271,7.271,0,0,0,1.2-.414c.61-.273,1.2-.647,1.333-1.074a3.452,3.452,0,0,0,.095-.743,2.616,2.616,0,0,1,1.076-2.01c.025-.025-.047-.074-.186-.14A7.275,7.275,0,0,0,378.3,81.093Z" transform="translate(-361.593 -72.251)" fill="#ffd800"/><path d="M369.494,114.058v4.714a1.087,1.087,0,0,0,.616.985,8.356,8.356,0,0,0,3.466.833,8.123,8.123,0,0,0,3.409-.821,1.1,1.1,0,0,0,.629-.991v-4.72" transform="translate(-364.982 -95.836)" fill="none" stroke="#21b209" stroke-linecap="round" stroke-linejoin="round" stroke-width="1.7"/><path d="M366.584,109.518a8.323,8.323,0,0,0-1.971-4.384" transform="translate(-362.122 -90.608)" fill="#fff" stroke="#21b209" stroke-linecap="round" stroke-linejoin="round" stroke-width="1.7"/><path d="M369.494,114.058a8.064,8.064,0,0,0,3.911.859,10.234,10.234,0,0,0,4.21-.859" transform="translate(-364.982 -95.836)" fill="none" stroke="#21b209" stroke-linecap="round" stroke-linejoin="round" stroke-width="1.7"/><g transform="translate(5.876 24.718)"><path d="M372.786,129.742l.688,2.427a4.542,4.542,0,0,0,2.149.511" transform="translate(-372.786 -129.742)" fill="#fff" stroke="#21b209" stroke-linecap="round" stroke-linejoin="round" stroke-width="1.7"/><path d="M382.056,129.742l-.687,2.427a4.544,4.544,0,0,1-2.149.511" transform="translate(-376.555 -129.742)" fill="none" stroke="#21b209" stroke-linecap="round" stroke-linejoin="round" stroke-width="1.7"/></g><path d="M373.354,101.032a20.654,20.654,0,0,1-2.073-7.386,2.584,2.584,0,0,1,.653-2.052,1.889,1.889,0,0,1,2.55.327,3.307,3.307,0,0,1,.6,2.7,1.146,1.146,0,0,1-.477.878.81.81,0,0,1-.919-.192,1.614,1.614,0,0,1-.4-.905c-.286-1.851,1.934-4.274,3.735-2.907,1.25.949.736,3.12.56,4.468a16.464,16.464,0,0,1-1.63,5.359" transform="translate(-366.027 -82.383)" fill="none" stroke="#21b209" stroke-linecap="round" stroke-linejoin="round" stroke-width="1.6"/><path d="M372.271,122.126a8.926,8.926,0,0,0,5.69.08" transform="translate(-366.608 -100.563)" fill="none" stroke="#21b209" stroke-linecap="round" stroke-linejoin="round" stroke-width="1.7"/><path d="M389.131,109.7a8.322,8.322,0,0,1,1.971-4.384" transform="translate(-376.485 -90.715)" fill="#fff" stroke="#21b209" stroke-linecap="round" stroke-linejoin="round" stroke-width="1.7"/><path d="M361.1,84.662a8.552,8.552,0,1,1,11.828.255" transform="translate(-358.525 -70.063)" fill="none" stroke="#21b209" stroke-linecap="round" stroke-linejoin="round" stroke-width="1.7"/></g></g></g></svg>