<svg xmlns="http://www.w3.org/2000/svg" width="43.963" height="41.704" viewBox="0 0 43.963 41.704"><g transform="translate(-622.403 -39.146)"><g transform="translate(623.253 40)"><path d="M668.2,61.068V73.329a23.888,23.888,0,0,1-12.26,3.576h.1a23.888,23.888,0,0,1-12.259-3.576V61.068" transform="translate(-634.326 -51.363)" fill="#fff" stroke="#0d3d6b" stroke-linecap="round" stroke-linejoin="round" stroke-width="1.7"/><path d="M672.235,63.8v10.82a21.08,21.08,0,0,1-10.819,3.156h.091a21.081,21.081,0,0,1-10.819-3.156V63.8" transform="translate(-638.051 -52.838)" fill="#ffd800"/><path d="M668.2,61.068V73.329a23.888,23.888,0,0,1-12.26,3.576h.1a23.888,23.888,0,0,1-12.259-3.576V61.068" transform="translate(-634.326 -51.363)" fill="none" stroke="#21b209" stroke-linecap="round" stroke-linejoin="round" stroke-width="1.7"/><path d="M666.824,49.37l-18.561,8.568a2.969,2.969,0,0,1-2.488,0L627.213,49.37a.925.925,0,0,1,.051-1.7l19.417-7.605a.927.927,0,0,1,.675,0l19.418,7.605A.925.925,0,0,1,666.824,49.37Z" transform="translate(-625.099 -40)" fill="#fff" stroke="#0d3d6b" stroke-linecap="round" stroke-linejoin="round" stroke-width="1.7"/><path d="M671.022,50.795l-16.38,7.561a2.62,2.62,0,0,1-2.2,0l-16.38-7.561a.817.817,0,0,1,.045-1.5l17.135-6.711a.816.816,0,0,1,.6,0l17.135,6.711A.817.817,0,0,1,671.022,50.795Z" transform="translate(-629.908 -41.362)" fill="#ffd800"/><path d="M666.824,49.37l-18.561,8.568a2.969,2.969,0,0,1-2.488,0L627.213,49.37a.925.925,0,0,1,.051-1.7l19.417-7.605a.927.927,0,0,1,.675,0l19.418,7.605A.925.925,0,0,1,666.824,49.37Z" transform="translate(-625.099 -40)" fill="none" stroke="#21b209" stroke-linecap="round" stroke-linejoin="round" stroke-width="1.7"/><path d="M625.7,98.68q.058-.791.123-1.582c.04-.485.161-1.078.581-1.2.913-.263.956,1.646,1.029,2.289.106.93.776,3.345-.033,4.049-.251.218-.585.1-.877.08-.578-.035-.832.032-1.025-.5a8.26,8.26,0,0,1,.146-2.365Q625.674,99.068,625.7,98.68Z" transform="translate(-624.432 -70.136)" fill="#cedce7"/><path d="M626.97,101.516l-.723-5.578a1.234,1.234,0,1,0-2.468,0l-.526,5.733c.74,0,1.475.374,2.215.364A2.628,2.628,0,0,0,626.97,101.516Z" transform="translate(-623.253 -69.505)" fill="#fff" stroke="#21b209" stroke-linecap="round" stroke-linejoin="round" stroke-width="1.7"/><line y2="15.372" transform="translate(1.791 9.225)" fill="none" stroke="#21b209" stroke-linecap="round" stroke-linejoin="round" stroke-width="1.7"/><line x2="19.562" transform="translate(1.663 8.377)" fill="none" stroke="#21b209" stroke-linecap="round" stroke-linejoin="round" stroke-width="1.7"/><rect width="2.198" height="2.71" rx="0.881" transform="translate(0.876 22.95)" fill="#21b209"/></g><g transform="translate(646.748 55.53)"><path d="M680.245,96.069l-5.071,1.8-.125-5.18L687.38,73.715l5.2,3.376Z" transform="translate(-674.685 -73.715)" fill="#fff"/><g transform="translate(0 0.035)"><rect width="1.39" height="22.541" transform="matrix(0.839, 0.545, -0.545, 0.839, 16.574, 2.676)" fill="#21b209"/><rect width="1.39" height="22.541" transform="matrix(0.839, 0.545, -0.545, 0.839, 12.455, 0)" fill="#0d3d6b"/><path d="M679.679,96.529l-5.069,1.708-.353-5.23,12.471-19.194,5.421,3.522Z" transform="translate(-674.258 -73.802)" fill="none" stroke="#21b209" stroke-linecap="round" stroke-linejoin="round" stroke-width="1.7"/><line x2="4.835" y2="3.142" transform="translate(0.388 19.249)" fill="#fff" stroke="#21b209" stroke-linecap="round" stroke-linejoin="round" stroke-width="1.5"/><line y1="18.532" x2="12.041" transform="translate(1.569 1.068)" fill="none" stroke="#21b209" stroke-linecap="round" stroke-linejoin="round" stroke-width="1.5"/><line y1="18.532" x2="12.041" transform="translate(4.185 2.966)" fill="none" stroke="#21b209" stroke-linecap="round" stroke-linejoin="round" stroke-width="1.5"/><path d="M674.863,122.208l1.612,1.047-1.538,1.084Z" transform="translate(-674.584 -99.904)" fill="none" stroke="#21b209" stroke-linecap="round" stroke-linejoin="round" stroke-width="1.5"/></g></g></g></svg>