<svg xmlns="http://www.w3.org/2000/svg" width="18.538" height="20.125" viewBox="0 0 18.538 20.125"><path d="M11.5,1.495c.552-.575.552-.575,2.99-3.151a31.259,31.259,0,0,0,4.876-6.325,9.4,9.4,0,0,0,1.4-4.922,5.558,5.558,0,0,0-2.139-4.853,4.895,4.895,0,0,0-2.737-.874,5.515,5.515,0,0,0-2.346.529,3.89,3.89,0,0,0-1.725,2.645c-.115.69-.184.828-.322.828s-.161-.069-.322-.828a4.061,4.061,0,0,0-1.564-2.553,3.915,3.915,0,0,0-2.323-.621,4.458,4.458,0,0,0-3.91,1.909,6.824,6.824,0,0,0-1.15,3.772c0,2.254,1.127,4.922,3.381,7.889C7.13-3.036,7.544-2.576,11.5,1.495Z" transform="translate(-2.231 18.63)" fill="#d9d9d9"/></svg>