<svg xmlns="http://www.w3.org/2000/svg" width="40" height="40" viewBox="0 0 40 40"><g transform="translate(40 40) rotate(180)"><path d="M24.5,10.523a1.863,1.863,0,0,0-2.625,0l-9.173,9.2a1.854,1.854,0,0,0-.058,2.558l9.038,9.067a1.853,1.853,0,1,0,2.625-2.615l-7.673-7.788,7.875-7.8A1.854,1.854,0,0,0,24.5,10.523Z" transform="translate(-0.146 -0.947)" fill="#ff6400"/><path d="M23.375,3.375a20,20,0,1,0,20,20A20,20,0,0,0,23.375,3.375ZM35.337,35.337A16.916,16.916,0,1,1,11.413,11.413,16.916,16.916,0,1,1,35.337,35.337Z" transform="translate(-3.375 -3.375)" fill="#ff6400"/></g></svg>