<svg xmlns="http://www.w3.org/2000/svg" width="12.504" height="15" viewBox="0 0 12.504 15"><path d="M18.887,5.156c-.121.02-.25.039-.387.055a23.026,23.026,0,0,1-2.367.2,14.374,14.374,0,0,1-3.055-.477A14.961,14.961,0,0,0,9.93,4.5a5.769,5.769,0,0,0-3.02.523l-.16.113v13.8a.558.558,0,0,0,.48.559.547.547,0,0,0,.613-.543V12.922a.317.317,0,0,1,.25-.309,9.479,9.479,0,0,1,1.836-.152,14.631,14.631,0,0,1,2.992.605,13.772,13.772,0,0,0,3.258.449,18.52,18.52,0,0,0,2.8-.258.315.315,0,0,0,.27-.309V5.465A.318.318,0,0,0,18.887,5.156Z" transform="translate(-6.75 -4.5)" fill="#21b209"/></svg>