<svg xmlns="http://www.w3.org/2000/svg" width="25.008" height="30" viewBox="0 0 25.008 30"><path d="M31.023,5.812c-.242.039-.5.078-.773.109a46.053,46.053,0,0,1-4.734.406,28.747,28.747,0,0,1-6.109-.953,29.923,29.923,0,0,0-6.3-.875c-4.391,0-5.883.945-6.039,1.047l-.32.227v27.6a1.115,1.115,0,0,0,.961,1.117,1.093,1.093,0,0,0,1.227-1.086V21.344a.635.635,0,0,1,.5-.617,18.957,18.957,0,0,1,3.672-.3c2.047,0,3.961.781,5.984,1.211a27.544,27.544,0,0,0,6.516.9,37.039,37.039,0,0,0,5.609-.516.63.63,0,0,0,.539-.617V6.43A.636.636,0,0,0,31.023,5.812Z" transform="translate(-6.75 -4.5)" fill="#ff6400"/></svg>